{
  "asset": {
    "generator": "Khronos glTF Blender I/O v1.7.33",
    "version": "2.0"
  },
  "scene": 0,
  "scenes": [
    {
      "name": "Scene",
      "nodes": [1, 2]
    }
  ],
  "nodes": [
    {
      "camera": 0,
      "name": "Camera",
      "rotation": [-0.7071067690849304, 0, 0, 0.7071067690849304]
    },
    {
      "children": [0],
      "rotation": [
        0.483536034822464, 0.33687159419059753, -0.20870360732078552,
        0.7804827094078064
      ],
      "translation": [7.358891487121582, 4.958309173583984, 6.925790786743164]
    },
    {
      "mesh": 0,
      "name": "Grid",
      "scale": [10, 1, 10]
    }
  ],
  "cameras": [
    {
      "name": "Camera",
      "perspective": {
        "aspectRatio": 1.7777777777777777,
        "yfov": 1.3945441219167873,
        "zfar": 100,
        "znear": 0.10000000149011612
      },
      "type": "perspective"
    }
  ],
  "materials": [
    {
      "doubleSided": true,
      "name": "Material.001",
      "pbrMetallicRoughness": {
        "baseColorTexture": {
          "index": 0
        },
        "metallicFactor": 0,
        "roughnessFactor": 0.5
      }
    }
  ],
  "meshes": [
    {
      "name": "Grid",
      "primitives": [
        {
          "attributes": {
            "POSITION": 0,
            "NORMAL": 1,
            "TEXCOORD_0": 2
          },
          "indices": 3,
          "material": 0
        }
      ]
    }
  ],
  "textures": [
    {
      "sampler": 0,
      "source": 0
    }
  ],
  "images": [
    {
      "mimeType": "image/png",
      "name": "Material",
      "uri": "Material.png"
    }
  ],
  "accessors": [
    {
      "bufferView": 0,
      "componentType": 5126,
      "count": 24723,
      "max": [1, 0.7773312330245972, 1.0040984153747559],
      "min": [-1.004695177078247, 0, -1.001802921295166],
      "type": "VEC3"
    },
    {
      "bufferView": 1,
      "componentType": 5126,
      "count": 24723,
      "type": "VEC3"
    },
    {
      "bufferView": 2,
      "componentType": 5126,
      "count": 24723,
      "type": "VEC2"
    },
    {
      "bufferView": 3,
      "componentType": 5123,
      "count": 38400,
      "type": "SCALAR"
    }
  ],
  "bufferViews": [
    {
      "buffer": 0,
      "byteLength": 296676,
      "byteOffset": 0
    },
    {
      "buffer": 0,
      "byteLength": 296676,
      "byteOffset": 296676
    },
    {
      "buffer": 0,
      "byteLength": 197784,
      "byteOffset": 593352
    },
    {
      "buffer": 0,
      "byteLength": 76800,
      "byteOffset": 791136
    }
  ],
  "samplers": [
    {
      "magFilter": 9729,
      "minFilter": 9987
    }
  ],
  "buffers": [
    {
      "byteLength": 867936,
      "uri": "untitled.bin"
    }
  ]
}
